<svg width="1380" height="133" viewBox="0 0 1380 133" fill="none" xmlns="http://www.w3.org/2000/svg">
<path d="M60.7347 0C27.1926 0 0 27.0872 0 60.5004C0 93.9149 27.1926 121 60.7347 121C94.2805 121 121.47 93.9149 121.47 60.5004C121.47 27.0894 94.2805 0.00288983 60.734 0.00288983L60.7347 0ZM88.5873 87.2589C87.4994 89.0361 85.1641 89.5997 83.38 88.5088C69.1201 79.832 51.1687 77.8669 30.0276 82.6785C27.9904 83.1409 25.9597 81.8693 25.4955 79.8392C25.0292 77.8091 26.3005 75.7862 28.3428 75.3238C51.4783 70.0585 71.3234 72.3256 87.3326 82.0716C89.1167 83.1625 89.6824 85.4816 88.5873 87.2589ZM96.0211 70.7853C94.6504 73.0047 91.7349 73.7055 89.5084 72.3401C73.1829 62.3441 48.2974 59.4492 28.9876 65.2881C26.4833 66.0416 23.8383 64.6357 23.0782 62.1454C22.324 59.6507 23.736 57.021 26.236 56.2624C48.293 49.5955 75.7141 52.8249 94.4618 64.3012C96.6883 65.6667 97.3918 68.5703 96.0211 70.7853ZM96.6593 53.6312C77.0848 42.0494 44.7894 40.9845 26.1004 46.6349C23.0993 47.5416 19.9256 45.8539 19.0161 42.8644C18.1066 39.8734 19.7994 36.714 22.8026 35.8052C44.2563 29.3175 79.9205 30.571 102.457 43.8982C105.162 45.4941 106.047 48.967 104.444 51.6524C102.849 54.3414 99.3529 55.2278 96.6622 53.6312H96.6593ZM165.239 55.8506C154.752 53.3596 152.888 51.6112 152.888 47.9375C152.888 44.4668 156.166 42.1311 161.047 42.1311C165.776 42.1311 170.461 43.9047 175.378 47.556C175.523 47.6666 175.712 47.7106 175.893 47.6817C176.082 47.6543 176.241 47.5539 176.35 47.4029L181.47 40.2129C181.681 39.9167 181.623 39.5085 181.34 39.2824C175.487 34.6059 168.902 32.3323 161.199 32.3323C149.878 32.3323 141.966 39.1011 141.966 48.7857C141.966 59.171 148.79 62.8484 160.583 65.6869C170.613 67.9894 172.31 69.9184 172.31 73.366C172.31 77.1878 168.887 79.5647 163.375 79.5647C157.254 79.5647 152.257 77.5057 146.673 72.6941C146.535 72.5713 146.346 72.5207 146.172 72.5279C145.984 72.5424 145.817 72.629 145.701 72.7663L139.957 79.5719C139.717 79.8609 139.747 80.2799 140.022 80.5256C146.52 86.3052 154.513 89.354 163.143 89.354C175.342 89.354 183.225 82.7146 183.225 72.434C183.247 63.7594 178.033 58.955 165.261 55.86L165.239 55.8506ZM210.828 45.5483C205.541 45.5483 201.204 47.6232 197.622 51.8749V47.0893C197.622 46.7115 197.317 46.4037 196.94 46.4037H187.548C187.171 46.4037 186.866 46.7115 186.866 47.0893V100.263C186.866 100.639 187.171 100.95 187.548 100.95H196.94C197.317 100.95 197.622 100.639 197.622 100.263V83.4804C201.204 87.4756 205.541 89.4335 210.828 89.4335C220.656 89.4335 230.606 81.8982 230.606 67.4931C230.621 53.085 220.67 45.5476 210.836 45.5476L210.828 45.5483ZM219.684 67.4931C219.684 74.8253 215.151 79.9476 208.653 79.9476C202.234 79.9476 197.39 74.5941 197.39 67.4931C197.39 60.3913 202.234 55.0393 208.653 55.0393C215.042 55.0386 219.684 60.2757 219.684 67.4931ZM256.099 45.5483C243.443 45.5483 233.529 55.2553 233.529 67.6498C233.529 79.9115 243.378 89.513 255.946 89.513C268.645 89.513 278.589 79.8392 278.589 67.4931C278.589 55.1888 268.711 45.5497 256.099 45.5497V45.5483ZM256.099 80.0198C249.368 80.0198 244.292 74.6303 244.292 67.4895C244.292 60.3161 249.194 55.1108 255.946 55.1108C262.72 55.1108 267.826 60.4982 267.826 67.6462C267.826 74.8181 262.894 80.0198 256.099 80.0198ZM305.612 46.4037H295.277V35.8803C295.277 35.5032 294.972 35.1954 294.595 35.1954H285.203C284.826 35.1954 284.514 35.5032 284.514 35.8803V46.4037H280.003C279.626 46.4037 279.321 46.7115 279.321 47.0893V55.1281C279.321 55.5053 279.626 55.8138 280.003 55.8138H284.514V76.617C284.514 85.0193 288.713 89.2818 297.003 89.2818C300.368 89.2818 303.16 88.5882 305.793 87.0999C306.01 86.9844 306.141 86.7532 306.141 86.5075V78.8494C306.141 78.6182 306.018 78.3943 305.815 78.2715C305.612 78.1414 305.358 78.1342 305.147 78.2426C303.341 79.1456 301.594 79.5647 299.635 79.5647C296.626 79.5647 295.277 78.1992 295.277 75.1504V55.8174H305.612C305.989 55.8174 306.293 55.5096 306.293 55.1317V47.0936C306.308 46.7158 306.003 46.408 305.619 46.408L305.612 46.4037ZM341.613 46.4449V45.1524C341.613 41.3501 343.078 39.6545 346.356 39.6545C348.314 39.6545 349.888 40.0417 351.65 40.6269C351.868 40.6948 352.093 40.6609 352.267 40.5315C352.448 40.4022 352.55 40.1949 352.55 39.9752V32.0932C352.55 31.7919 352.361 31.5253 352.064 31.4365C350.207 30.8852 347.828 30.3195 344.26 30.3195C335.593 30.3195 331.003 35.1846 331.003 44.3837V46.3632H326.492C326.114 46.3632 325.803 46.671 325.803 47.0481V55.1281C325.803 55.5053 326.114 55.8138 326.492 55.8138H331.003V87.8947C331.003 88.2776 331.314 88.581 331.692 88.581H341.076C341.461 88.581 341.765 88.2776 341.765 87.8947V55.8159H350.534L363.965 87.8947C362.442 91.2613 360.941 91.9332 358.896 91.9332C357.242 91.9332 355.494 91.4419 353.717 90.4666C353.551 90.3799 353.348 90.3655 353.174 90.416C352.992 90.4811 352.84 90.6111 352.767 90.7845L349.584 97.7418C349.431 98.0741 349.562 98.457 349.881 98.6304C353.203 100.422 356.198 101.188 359.904 101.188C366.837 101.188 370.674 97.9658 374.046 89.3107L390.335 47.3812C390.422 47.1702 390.393 46.9318 390.263 46.7447C390.14 46.559 389.929 46.447 389.704 46.447H379.928C379.631 46.447 379.37 46.6327 379.275 46.9065L369.26 75.3961L358.294 46.8877C358.192 46.6226 357.938 46.447 357.656 46.447H341.613V46.4449ZM320.74 46.4037H311.348C310.971 46.4037 310.659 46.7115 310.659 47.0893V87.8947C310.659 88.2776 310.971 88.581 311.348 88.581H320.74C321.117 88.581 321.429 88.2776 321.429 87.8947V47.0922C321.429 46.7144 321.125 46.4066 320.74 46.4066V46.4037ZM316.099 27.8227C312.378 27.8227 309.361 30.8224 309.361 34.5279C309.361 38.2355 312.378 41.2388 316.099 41.2388C319.819 41.2388 322.829 38.2355 322.829 34.5279C322.829 30.8231 319.812 27.8227 316.099 27.8227ZM398.357 59.5243C394.643 59.5243 391.75 56.5514 391.75 52.9412C391.75 49.3311 394.68 46.3242 398.393 46.3242C402.106 46.3242 405 49.2964 405 52.9037C405 56.5138 402.07 59.5243 398.357 59.5243ZM398.393 46.9788C395.006 46.9788 392.446 49.6591 392.446 52.9412C392.446 56.2219 394.992 58.8662 398.357 58.8662C401.744 58.8662 404.304 56.188 404.304 52.9037C404.304 49.623 401.758 46.9788 398.393 46.9788ZM399.858 53.5806L401.729 56.1873H400.148L398.465 53.7959H397.022V56.1873H395.702V49.2776H398.792C400.409 49.2776 401.468 50.0991 401.468 51.4819C401.475 52.6147 400.815 53.3068 399.865 53.5806H399.858ZM398.741 50.4632H397.022V52.6487H398.741C399.597 52.6487 400.112 52.2303 400.112 51.5548C400.112 50.8439 399.597 50.4632 398.741 50.4632Z" fill="#CFF0D1"/>
<path d="M504.04 90V82.96H519.16C523.747 82.96 527.667 82.0267 530.92 80.16C534.227 78.2933 536.76 75.7067 538.52 72.4C540.28 69.0933 541.16 65.2533 541.16 60.88C541.16 56.56 540.28 52.8 538.52 49.6C536.813 46.4 534.307 43.92 531 42.16C527.747 40.3467 523.8 39.44 519.16 39.44H504.12V32.4H519.16C525.347 32.4 530.733 33.5733 535.32 35.92C539.907 38.2667 543.453 41.6 545.96 45.92C548.52 50.1867 549.8 55.2267 549.8 61.04C549.8 66.8533 548.52 71.9467 545.96 76.32C543.4 80.64 539.827 84 535.24 86.4C530.707 88.8 525.373 90 519.24 90H504.04ZM498.92 90V32.4H507.4V90H498.92ZM583.729 90C583.463 88.9867 583.276 87.8667 583.169 86.64C583.116 85.4133 583.089 83.92 583.089 82.16H582.689V62.72C582.689 60.1067 582.023 58.16 580.689 56.88C579.409 55.5467 577.356 54.88 574.529 54.88C571.809 54.88 569.623 55.4133 567.969 56.48C566.369 57.5467 565.436 59.0667 565.169 61.04H557.249C557.623 57.2 559.356 54.1333 562.449 51.84C565.543 49.5467 569.676 48.4 574.849 48.4C580.183 48.4 584.183 49.6533 586.849 52.16C589.516 54.6133 590.849 58.24 590.849 63.04V82.16C590.849 83.3867 590.929 84.64 591.089 85.92C591.249 87.2 591.489 88.56 591.809 90H583.729ZM569.649 90.8C565.489 90.8 562.183 89.7867 559.729 87.76C557.276 85.68 556.049 82.88 556.049 79.36C556.049 75.7333 557.329 72.88 559.889 70.8C562.503 68.6667 566.236 67.2267 571.089 66.48L584.529 64.32V70.16L572.369 72.08C569.649 72.5067 567.596 73.2267 566.209 74.24C564.876 75.2533 564.209 76.72 564.209 78.64C564.209 80.5067 564.823 81.92 566.049 82.88C567.329 83.7867 569.169 84.24 571.569 84.24C574.769 84.24 577.409 83.4667 579.489 81.92C581.623 80.3733 582.689 78.4267 582.689 76.08L583.729 82C582.769 84.8267 581.063 87.0133 578.609 88.56C576.156 90.0533 573.169 90.8 569.649 90.8ZM617.841 90.8C613.094 90.8 609.601 89.7067 607.361 87.52C605.174 85.28 604.081 82 604.081 77.68V39.84L612.321 36.72V77.76C612.321 79.8933 612.881 81.4667 614.001 82.48C615.121 83.4933 616.934 84 619.441 84C620.401 84 621.254 83.92 622.001 83.76C622.747 83.6 623.387 83.4133 623.921 83.2V89.92C623.334 90.1867 622.507 90.4 621.441 90.56C620.374 90.72 619.174 90.8 617.841 90.8ZM595.921 55.84V49.2H623.921V55.84H595.921ZM656.854 90C656.588 88.9867 656.401 87.8667 656.294 86.64C656.241 85.4133 656.214 83.92 656.214 82.16H655.814V62.72C655.814 60.1067 655.148 58.16 653.814 56.88C652.534 55.5467 650.481 54.88 647.654 54.88C644.934 54.88 642.748 55.4133 641.094 56.48C639.494 57.5467 638.561 59.0667 638.294 61.04H630.374C630.748 57.2 632.481 54.1333 635.574 51.84C638.668 49.5467 642.801 48.4 647.974 48.4C653.308 48.4 657.308 49.6533 659.974 52.16C662.641 54.6133 663.974 58.24 663.974 63.04V82.16C663.974 83.3867 664.054 84.64 664.214 85.92C664.374 87.2 664.614 88.56 664.934 90H656.854ZM642.774 90.8C638.614 90.8 635.308 89.7867 632.854 87.76C630.401 85.68 629.174 82.88 629.174 79.36C629.174 75.7333 630.454 72.88 633.014 70.8C635.628 68.6667 639.361 67.2267 644.214 66.48L657.654 64.32V70.16L645.494 72.08C642.774 72.5067 640.721 73.2267 639.334 74.24C638.001 75.2533 637.334 76.72 637.334 78.64C637.334 80.5067 637.948 81.92 639.174 82.88C640.454 83.7867 642.294 84.24 644.694 84.24C647.894 84.24 650.534 83.4667 652.614 81.92C654.748 80.3733 655.814 78.4267 655.814 76.08L656.854 82C655.894 84.8267 654.188 87.0133 651.734 88.56C649.281 90.0533 646.294 90.8 642.774 90.8ZM691.028 90V32.4H713.748C717.908 32.4 721.454 33.0933 724.388 34.48C727.321 35.8133 729.588 37.7067 731.188 40.16C732.788 42.56 733.588 45.4133 733.588 48.72C733.588 52.0267 732.788 54.9067 731.188 57.36C729.588 59.8133 727.321 61.7333 724.388 63.12C721.454 64.5067 717.908 65.2 713.748 65.2H697.428V58.32H713.508C717.348 58.32 720.254 57.4933 722.228 55.84C724.254 54.1333 725.268 51.7867 725.268 48.8C725.268 45.8133 724.281 43.4933 722.308 41.84C720.334 40.1867 717.401 39.36 713.508 39.36H699.508V90H691.028ZM724.308 90L696.228 60.96H706.548L736.468 90H724.308ZM759.018 90.8C754.911 90.8 751.285 89.8933 748.138 88.08C745.045 86.2667 742.618 83.76 740.858 80.56C739.098 77.36 738.218 73.68 738.218 69.52C738.218 65.3067 739.071 61.6267 740.778 58.48C742.538 55.28 744.991 52.8 748.138 51.04C751.285 49.28 754.885 48.4 758.938 48.4C762.885 48.4 766.298 49.2533 769.178 50.96C772.111 52.6133 774.351 54.9333 775.898 57.92C777.498 60.9067 778.298 64.4533 778.298 68.56C778.298 69.2 778.271 69.8133 778.218 70.4C778.218 70.9333 778.165 71.4933 778.058 72.08H743.818V65.84H772.218L770.138 68.32C770.138 63.9467 769.151 60.6133 767.178 58.32C765.205 56.0267 762.458 54.88 758.938 54.88C755.151 54.88 752.138 56.1867 749.898 58.8C747.711 61.36 746.618 64.9333 746.618 69.52C746.618 74.16 747.711 77.7867 749.898 80.4C752.138 83.0133 755.231 84.32 759.178 84.32C761.578 84.32 763.658 83.84 765.418 82.88C767.178 81.8667 768.485 80.4 769.338 78.48H777.178C775.845 82.32 773.578 85.3333 770.378 87.52C767.231 89.7067 763.445 90.8 759.018 90.8ZM797.473 90L780.833 49.2H789.713L803.313 86.24H799.393L812.833 49.2H821.393L804.833 90H797.473ZM827.59 90V49.2H835.91V90H827.59ZM827.19 41.2V31.84H836.39V41.2H827.19ZM865.034 90.8C860.927 90.8 857.3 89.8933 854.154 88.08C851.06 86.2667 848.634 83.76 846.874 80.56C845.114 77.36 844.234 73.68 844.234 69.52C844.234 65.3067 845.087 61.6267 846.794 58.48C848.554 55.28 851.007 52.8 854.154 51.04C857.3 49.28 860.9 48.4 864.954 48.4C868.9 48.4 872.314 49.2533 875.194 50.96C878.127 52.6133 880.367 54.9333 881.914 57.92C883.514 60.9067 884.314 64.4533 884.314 68.56C884.314 69.2 884.287 69.8133 884.234 70.4C884.234 70.9333 884.18 71.4933 884.074 72.08H849.834V65.84H878.234L876.154 68.32C876.154 63.9467 875.167 60.6133 873.194 58.32C871.22 56.0267 868.474 54.88 864.954 54.88C861.167 54.88 858.154 56.1867 855.914 58.8C853.727 61.36 852.634 64.9333 852.634 69.52C852.634 74.16 853.727 77.7867 855.914 80.4C858.154 83.0133 861.247 84.32 865.194 84.32C867.594 84.32 869.674 83.84 871.434 82.88C873.194 81.8667 874.5 80.4 875.354 78.48H883.194C881.86 82.32 879.594 85.3333 876.394 87.52C873.247 89.7067 869.46 90.8 865.034 90.8ZM900.365 90L887.885 49.2H896.445L904.925 82H903.725L914.045 49.2H921.245L931.565 82H930.445L938.845 49.2H947.005L934.525 90H927.245L916.925 57.76H918.125L907.645 90H900.365ZM973.683 90V44.48C973.683 40.32 974.856 37.1467 977.203 34.96C979.549 32.72 983.069 31.6 987.763 31.6C988.829 31.6 989.709 31.6533 990.403 31.76C991.096 31.8667 991.709 32.0267 992.243 32.24V38.64C991.869 38.5333 991.363 38.4267 990.723 38.32C990.136 38.2133 989.469 38.16 988.723 38.16C986.376 38.16 984.669 38.7467 983.603 39.92C982.536 41.04 982.003 42.64 982.003 44.72V90H973.683ZM965.843 55.84V49.2H991.363V55.84H965.843ZM1015.51 90.8C1011.35 90.8 1007.69 89.8933 1004.55 88.08C1001.4 86.2133 998.946 83.68 997.186 80.48C995.426 77.2267 994.546 73.5467 994.546 69.44C994.546 65.28 995.426 61.6267 997.186 58.48C999 55.3333 1001.45 52.88 1004.55 51.12C1007.69 49.3067 1011.35 48.4 1015.51 48.4C1019.72 48.4 1023.4 49.3067 1026.55 51.12C1029.69 52.88 1032.12 55.3333 1033.83 58.48C1035.59 61.6267 1036.47 65.28 1036.47 69.44C1036.47 73.5467 1035.59 77.2267 1033.83 80.48C1032.12 83.68 1029.69 86.2133 1026.55 88.08C1023.4 89.8933 1019.72 90.8 1015.51 90.8ZM1015.51 84C1018.01 84 1020.17 83.3867 1021.99 82.16C1023.85 80.9333 1025.32 79.2267 1026.39 77.04C1027.45 74.8533 1027.99 72.2933 1027.99 69.36C1027.99 64.9867 1026.81 61.5467 1024.47 59.04C1022.17 56.48 1019.19 55.2 1015.51 55.2C1011.88 55.2 1008.89 56.48 1006.55 59.04C1004.25 61.6 1003.11 65.04 1003.11 69.36C1003.11 72.2933 1003.61 74.8533 1004.63 77.04C1005.69 79.2267 1007.16 80.9333 1009.03 82.16C1010.95 83.3867 1013.11 84 1015.51 84ZM1045.01 90V49.2H1052.93V59.36H1053.33V90H1045.01ZM1053.33 68.72L1052.29 59.04C1053.25 55.5733 1054.91 52.9333 1057.25 51.12C1059.6 49.3067 1062.4 48.4 1065.65 48.4C1066.88 48.4 1067.73 48.5067 1068.21 48.72V56.56C1067.95 56.4533 1067.57 56.4 1067.09 56.4C1066.61 56.3467 1066.03 56.32 1065.33 56.32C1061.33 56.32 1058.32 57.36 1056.29 59.44C1054.32 61.52 1053.33 64.6133 1053.33 68.72ZM1091.5 90V32.4H1099.98V90H1091.5ZM1111.81 90V32.4H1120.29V90H1111.81ZM1157.48 90.8C1153.48 90.8 1149.78 90.08 1146.36 88.64C1142.95 87.1467 1139.99 85.0933 1137.48 82.48C1135.03 79.8133 1133.11 76.6667 1131.72 73.04C1130.34 69.4133 1129.64 65.44 1129.64 61.12C1129.64 56.8 1130.31 52.8533 1131.64 49.28C1133.03 45.6533 1134.95 42.5333 1137.4 39.92C1139.91 37.2533 1142.87 35.2 1146.28 33.76C1149.7 32.32 1153.4 31.6 1157.4 31.6C1161.88 31.6 1165.91 32.5067 1169.48 34.32C1173.06 36.08 1175.96 38.5867 1178.2 41.84C1180.5 45.0933 1181.91 48.88 1182.44 53.2H1174.12C1173.43 48.6667 1171.59 45.1467 1168.6 42.64C1165.67 40.08 1161.96 38.8 1157.48 38.8C1153.7 38.8 1150.34 39.7333 1147.4 41.6C1144.52 43.4133 1142.28 46 1140.68 49.36C1139.08 52.6667 1138.28 56.5867 1138.28 61.12C1138.28 65.6 1139.08 69.5467 1140.68 72.96C1142.34 76.32 1144.6 78.9333 1147.48 80.8C1150.36 82.6667 1153.7 83.6 1157.48 83.6C1161.96 83.6 1165.7 82.3467 1168.68 79.84C1171.72 77.28 1173.56 73.7333 1174.2 69.2H1182.6C1182.02 73.5733 1180.58 77.3867 1178.28 80.64C1175.99 83.84 1173.06 86.3467 1169.48 88.16C1165.96 89.92 1161.96 90.8 1157.48 90.8ZM1188.53 90V83.04C1194.13 78.4533 1198.8 74.4533 1202.53 71.04C1206.32 67.6267 1209.33 64.5867 1211.57 61.92C1213.81 59.2533 1215.41 56.8267 1216.37 54.64C1217.33 52.4533 1217.81 50.2667 1217.81 48.08C1217.81 45.0933 1216.93 42.7733 1215.17 41.12C1213.47 39.4133 1211.09 38.56 1208.05 38.56C1204.91 38.56 1202.35 39.4933 1200.37 41.36C1198.4 43.1733 1197.17 45.76 1196.69 49.12H1188.05C1188.59 43.84 1190.64 39.6 1194.21 36.4C1197.84 33.2 1202.61 31.6 1208.53 31.6C1214.19 31.6 1218.64 33.0933 1221.89 36.08C1225.2 39.0667 1226.85 43.1733 1226.85 48.4C1226.85 51.0667 1226.35 53.7333 1225.33 56.4C1224.37 59.0133 1222.77 61.76 1220.53 64.64C1218.29 67.4667 1215.28 70.6133 1211.49 74.08C1207.76 77.4933 1203.12 81.3867 1197.57 85.76L1195.57 83.04H1227.89V90H1188.53ZM1257.38 90.8C1252.74 90.8 1248.66 89.5467 1245.14 87.04C1241.62 84.48 1238.87 80.96 1236.9 76.48C1234.93 71.9467 1233.94 66.7733 1233.94 60.96C1233.94 55.1467 1234.93 50.0533 1236.9 45.68C1238.87 41.2533 1241.62 37.8133 1245.14 35.36C1248.66 32.8533 1252.74 31.6 1257.38 31.6C1262.02 31.6 1266.07 32.8533 1269.54 35.36C1273.06 37.8133 1275.81 41.2533 1277.78 45.68C1279.75 50.0533 1280.74 55.1467 1280.74 60.96C1280.74 66.8267 1279.75 72 1277.78 76.48C1275.81 80.96 1273.06 84.48 1269.54 87.04C1266.02 89.5467 1261.97 90.8 1257.38 90.8ZM1257.38 83.52C1260.42 83.52 1263.01 82.5867 1265.14 80.72C1267.27 78.8 1268.87 76.16 1269.94 72.8C1271.06 69.3867 1271.62 65.4133 1271.62 60.88C1271.62 56.4 1271.06 52.5067 1269.94 49.2C1268.87 45.8933 1267.27 43.36 1265.14 41.6C1263.06 39.7867 1260.47 38.88 1257.38 38.88C1254.23 38.88 1251.59 39.7867 1249.46 41.6C1247.38 43.4133 1245.78 45.9733 1244.66 49.28C1243.59 52.5333 1243.06 56.4 1243.06 60.88C1243.06 65.4133 1243.62 69.3867 1244.74 72.8C1245.86 76.2133 1247.46 78.8533 1249.54 80.72C1251.67 82.5867 1254.29 83.52 1257.38 83.52ZM1286.5 90V83.04C1292.1 78.4533 1296.77 74.4533 1300.5 71.04C1304.29 67.6267 1307.3 64.5867 1309.54 61.92C1311.78 59.2533 1313.38 56.8267 1314.34 54.64C1315.3 52.4533 1315.78 50.2667 1315.78 48.08C1315.78 45.0933 1314.9 42.7733 1313.14 41.12C1311.44 39.4133 1309.06 38.56 1306.02 38.56C1302.88 38.56 1300.32 39.4933 1298.34 41.36C1296.37 43.1733 1295.14 45.76 1294.66 49.12H1286.02C1286.56 43.84 1288.61 39.6 1292.18 36.4C1295.81 33.2 1300.58 31.6 1306.5 31.6C1312.16 31.6 1316.61 33.0933 1319.86 36.08C1323.17 39.0667 1324.82 43.1733 1324.82 48.4C1324.82 51.0667 1324.32 53.7333 1323.3 56.4C1322.34 59.0133 1320.74 61.76 1318.5 64.64C1316.26 67.4667 1313.25 70.6133 1309.46 74.08C1305.73 77.4933 1301.09 81.3867 1295.54 85.76L1293.54 83.04H1325.86V90H1286.5ZM1353.91 90.8C1346.87 90.8 1341.43 88.3467 1337.59 83.44C1333.8 78.48 1331.91 71.3867 1331.91 62.16C1331.91 55.76 1332.82 50.2933 1334.63 45.76C1336.5 41.1733 1339.11 37.68 1342.47 35.28C1345.88 32.8267 1349.91 31.6 1354.55 31.6C1359.67 31.6 1363.88 33.04 1367.19 35.92C1370.55 38.8 1372.58 42.7467 1373.27 47.76H1364.55C1364.12 44.7733 1363 42.5067 1361.19 40.96C1359.43 39.36 1357.19 38.56 1354.47 38.56C1349.99 38.56 1346.63 40.48 1344.39 44.32C1342.15 48.16 1341.03 53.9467 1341.03 61.68V66.88L1338.95 66.16C1339.48 63.6533 1340.55 61.4667 1342.15 59.6C1343.75 57.7333 1345.72 56.2933 1348.07 55.28C1350.47 54.2133 1353.08 53.68 1355.91 53.68C1359.59 53.68 1362.79 54.4533 1365.51 56C1368.28 57.5467 1370.42 59.7333 1371.91 62.56C1373.46 65.3333 1374.23 68.56 1374.23 72.24C1374.23 75.9733 1373.38 79.2533 1371.67 82.08C1370.02 84.8533 1367.67 87.0133 1364.63 88.56C1361.59 90.0533 1358.02 90.8 1353.91 90.8ZM1353.83 83.84C1357.14 83.84 1359.83 82.8267 1361.91 80.8C1364.04 78.72 1365.11 75.8667 1365.11 72.24C1365.11 68.5067 1364.07 65.6267 1361.99 63.6C1359.91 61.52 1357.14 60.48 1353.67 60.48C1350.26 60.48 1347.4 61.4667 1345.11 63.44C1342.82 65.4133 1341.67 68.16 1341.67 71.68C1341.67 74.1333 1342.2 76.2667 1343.27 78.08C1344.34 79.8933 1345.78 81.3067 1347.59 82.32C1349.46 83.3333 1351.54 83.84 1353.83 83.84Z" fill="#CFF0D1"/>
</svg>
